<svg viewBox="0 0 288 288" width="288" height="288" x="0" y="0" xmlns="http://www.w3.org/2000/svg"><defs><pattern id="pattern" x="0" y="0" width="8" height="8" patternUnits="userSpaceOnUse"><polygon points="0,4 0,8 8,0 4,0" fill="#ffffff"></polygon><polygon points="4,8 8,8 8,4" fill="#ffffff"></polygon></pattern><mask id="grating" x="0" y="0" width="1" height="1"><rect x="0" y="0" width="100%" height="100%" fill="url(#pattern)"></rect></mask></defs><g id="horizStripes"><rect fill="#005020" height="8" width="100%" x="0" y="0"></rect><rect fill="#2C4084" height="40" width="100%" x="0" y="8"></rect><rect fill="#005020" height="8" width="100%" x="0" y="48"></rect><rect fill="#101010" height="40" width="100%" x="0" y="56"></rect><rect fill="#005020" height="48" width="100%" x="0" y="96"></rect><rect fill="#E8C000" height="8" width="100%" x="0" y="144"></rect><rect fill="#005020" height="48" width="100%" x="0" y="152"></rect><rect fill="#101010" height="40" width="100%" x="0" y="200"></rect><rect fill="#005020" height="8" width="100%" x="0" y="240"></rect><rect fill="#2C4084" height="40" width="100%" x="0" y="248"></rect></g><g id="vertStripes" mask="url(#grating)"><rect fill="#005020" height="100%" width="8" x="0" y="0"></rect><rect fill="#2C4084" height="100%" width="40" x="8" y="0"></rect><rect fill="#005020" height="100%" width="8" x="48" y="0"></rect><rect fill="#101010" height="100%" width="40" x="56" y="0"></rect><rect fill="#005020" height="100%" width="48" x="96" y="0"></rect><rect fill="#E8C000" height="100%" width="8" x="144" y="0"></rect><rect fill="#005020" height="100%" width="48" x="152" y="0"></rect><rect fill="#101010" height="100%" width="40" x="200" y="0"></rect><rect fill="#005020" height="100%" width="8" x="240" y="0"></rect><rect fill="#2C4084" height="100%" width="40" x="248" y="0"></rect></g></svg>